# xmcd CD database file generated by Grip 3.2.0
# 
# Track frame offsets:
#       150
#       20121
#       36560
# 
# Disc length: 751 seconds
# 
# Revision: 1
# Processed by: cddbd v1.5.2PL0 Copyright (c) Steve Scherf et al.
# Submitted via: Grip 3.2.0
# 
DISCID=2502ed03
DTITLE=TUBE - SUMMER TIME
DYEAR=2015
DGENRE=Rock
TTITLE0=SUMMER TIME
TTITLE1=トコナツPaPa featuring miwa
TTITLE2=SUMMER TIME (Instrumental)
EXTD=
EXTT0=
EXTT1=
EXTT2=
PLAYORDER=
